<mxfile host="app.diagrams.net" agent="Mozilla/5.0 (Windows NT 10.0; Win64; x64) AppleWebKit/537.36 (KHTML, like Gecko) Chrome/135.0.0.0 Safari/537.36" version="26.2.14">
  <diagram name="UML Diagramm" id="UML1">
    <mxGraphModel dx="980" dy="1378" grid="1" gridSize="10" guides="1" tooltips="1" connect="1" arrows="1" fold="1" page="1" pageScale="1" pageWidth="827" pageHeight="1169" math="0" shadow="0">
      <root>
        <mxCell id="0" />
        <mxCell id="1" parent="0" />
        <mxCell id="App" value="App" style="shape=swimlane;" parent="1" vertex="1">
          <mxGeometry x="150" y="120" width="180" height="100" as="geometry" />
        </mxCell>
        <mxCell id="App_body" value="+ start(Stage): void&amp;nbsp;&lt;div&gt;+ main(String[]): void&lt;/div&gt;" style="text;html=1;" parent="App" vertex="1">
          <mxGeometry y="40" width="180" height="60" as="geometry" />
        </mxCell>
        <mxCell id="Controller" value="Controller" style="shape=swimlane;" parent="1" vertex="1">
          <mxGeometry x="520" y="40" width="240" height="260" as="geometry" />
        </mxCell>
        <mxCell id="Controller_body" value="- dao: RandNamesDAO&amp;nbsp;&lt;div&gt;- SEPARATOR: String&amp;nbsp;&lt;/div&gt;&lt;div&gt;- showWinner: TextArea&amp;nbsp;&lt;/div&gt;&lt;div&gt;- showTeilnehmer: TextArea&amp;nbsp;&lt;/div&gt;&lt;div&gt;- teilnehmer: TextField&amp;nbsp;&lt;/div&gt;&lt;div&gt;- loaded: Label&lt;span style=&quot;background-color: transparent; color: light-dark(rgb(0, 0, 0), rgb(255, 255, 255));&quot;&gt;&amp;nbsp;&lt;/span&gt;&lt;/div&gt;&lt;div&gt;&lt;span style=&quot;background-color: transparent; color: light-dark(rgb(0, 0, 0), rgb(255, 255, 255));&quot;&gt;+ onClickAddBtn(): void&amp;nbsp;&lt;/span&gt;&lt;/div&gt;&lt;div&gt;&lt;span style=&quot;background-color: transparent; color: light-dark(rgb(0, 0, 0), rgb(255, 255, 255));&quot;&gt;+ onClickStartBtn(): void&amp;nbsp;&lt;/span&gt;&lt;/div&gt;&lt;div&gt;&lt;span style=&quot;background-color: transparent; color: light-dark(rgb(0, 0, 0), rgb(255, 255, 255));&quot;&gt;+ onClickLoadFileBtn(): void&amp;nbsp;&lt;/span&gt;&lt;/div&gt;&lt;div&gt;&lt;span style=&quot;background-color: transparent; color: light-dark(rgb(0, 0, 0), rgb(255, 255, 255));&quot;&gt;+ onClickSaveFileBtn(): void&amp;nbsp;&lt;/span&gt;&lt;/div&gt;&lt;div&gt;&lt;span style=&quot;background-color: transparent; color: light-dark(rgb(0, 0, 0), rgb(255, 255, 255));&quot;&gt;+ onClickResetBtn(): void&amp;nbsp;&lt;/span&gt;&lt;/div&gt;&lt;div&gt;&lt;span style=&quot;background-color: transparent; color: light-dark(rgb(0, 0, 0), rgb(255, 255, 255));&quot;&gt;+ getRandomNumber(int): int&lt;/span&gt;&lt;/div&gt;" style="text;html=1;" parent="Controller" vertex="1">
          <mxGeometry y="40" width="240" height="220" as="geometry" />
        </mxCell>
        <mxCell id="RandNamesDAO" value="RandNamesDAO" style="shape=swimlane;" parent="1" vertex="1">
          <mxGeometry x="120" y="425" width="240" height="220" as="geometry" />
        </mxCell>
        <mxCell id="RandNamesDAO_body" value="- randNamesList: List&amp;nbsp;&lt;div&gt;- time: String&amp;nbsp;&lt;/div&gt;&lt;div&gt;- formatter: DateTimeFormatter&amp;nbsp;&lt;/div&gt;&lt;div&gt;+ addNameList(String): void&amp;nbsp;&lt;/div&gt;&lt;div&gt;+ getNameOnList(int): String&amp;nbsp;&lt;/div&gt;&lt;div&gt;+ getAllNames(): List&amp;nbsp;&lt;/div&gt;&lt;div&gt;+ getListSize(): int&amp;nbsp;&lt;/div&gt;&lt;div&gt;+ saveData(): void&amp;nbsp;&lt;/div&gt;&lt;div&gt;+ loadFromFile(File): void&lt;/div&gt;" style="text;html=1;" parent="RandNamesDAO" vertex="1">
          <mxGeometry y="40" width="240" height="140" as="geometry" />
        </mxCell>
        <mxCell id="RandNames" value="RandNames" style="shape=swimlane;" parent="1" vertex="1">
          <mxGeometry x="550" y="480" width="180" height="110" as="geometry" />
        </mxCell>
        <mxCell id="RandNames_body" value="- name: String&amp;nbsp;&lt;div&gt;+ RandNames(String)&amp;nbsp;&lt;/div&gt;&lt;div&gt;+ getName(): String&amp;nbsp;&lt;/div&gt;&lt;div&gt;+ setName(String): String&lt;/div&gt;" style="text;html=1;" parent="RandNames" vertex="1">
          <mxGeometry y="40" width="180" height="70" as="geometry" />
        </mxCell>
        <mxCell id="rel1" style="endArrow=block;" parent="1" source="App" target="Controller" edge="1">
          <mxGeometry relative="1" as="geometry" />
        </mxCell>
        <mxCell id="rel2" style="endArrow=block;" parent="1" source="Controller" target="RandNamesDAO" edge="1">
          <mxGeometry relative="1" as="geometry" />
        </mxCell>
        <mxCell id="rel3" style="endArrow=block;" parent="1" source="RandNamesDAO" target="RandNames" edge="1">
          <mxGeometry relative="1" as="geometry" />
        </mxCell>
      </root>
    </mxGraphModel>
  </diagram>
</mxfile>
